<svg width="26" height="26" viewBox="0 0 26 26" fill="none" xmlns="http://www.w3.org/2000/svg">
<rect x="0.25" y="0.25" width="25.5" height="25.5" rx="4.75" fill="white" stroke="#9F9F9F" stroke-width="0.5"/>
<path d="M13 7C13.6025 7 14.0908 7.48837 14.0908 8.09082V11.9092H17.9092C18.5116 11.9092 19 12.3975 19 13C19 13.6025 18.5116 14.0908 17.9092 14.0908H14.0908V17.9092C14.0908 18.5116 13.6025 19 13 19C12.3975 19 11.9092 18.5116 11.9092 17.9092V14.0908H8.09082C7.48837 14.0908 7 13.6025 7 13C7 12.3975 7.48837 11.9092 8.09082 11.9092H11.9092V8.09082C11.9092 7.48837 12.3975 7 13 7Z" fill="#9F9F9F"/>
</svg>
