<svg width="26" height="26" viewBox="0 0 26 26" fill="none" xmlns="http://www.w3.org/2000/svg">
<rect x="0.25" y="0.25" width="25.5" height="25.5" rx="4.75" fill="#FFCDCD" stroke="#9F9F9F" stroke-width="0.5"/>
<path d="M8.12132 13.364C6.94975 12.1924 6.94975 10.2929 8.12132 9.12132V9.12132C9.29289 7.94975 11.1924 7.94975 12.364 9.12133L15.5459 12.3033C16.5223 13.2796 16.5223 14.8625 15.5459 15.8388L13.0711 18.3137L8.12132 13.364Z" fill="#FF7070"/>
<path d="M13.7787 9.12132C14.9502 7.94975 16.8497 7.94975 18.0213 9.12132V9.12132C19.1929 10.2929 19.1929 12.1924 18.0213 13.364L13.0716 18.3137L10.9502 16.1924C9.77867 15.0208 9.77867 13.1213 10.9502 11.9497L13.7787 9.12132Z" fill="#FF7070"/>
</svg>
