<svg width="52" height="52" viewBox="0 0 52 52" fill="none" xmlns="http://www.w3.org/2000/svg">
<rect x="13.25" y="13.25" width="25.5" height="25.5" rx="4.75" fill="white" stroke="#9F9F9F" stroke-width="0.5"/>
<path d="M21.7574 21.7574C22.1834 21.3314 22.874 21.3314 23.3 21.7574L26 24.4573L28.7 21.7574C29.126 21.3314 29.8167 21.3314 30.2427 21.7574C30.6687 22.1834 30.6686 22.874 30.2427 23.3L27.5427 26L30.2427 28.7C30.6686 29.126 30.6687 29.8166 30.2427 30.2426C29.8167 30.6686 29.126 30.6686 28.7 30.2426L26 27.5427L23.3 30.2426C22.874 30.6686 22.1834 30.6686 21.7574 30.2426C21.3314 29.8166 21.3314 29.126 21.7574 28.7L24.4574 26L21.7574 23.3C21.3314 22.874 21.3314 22.1834 21.7574 21.7574Z" fill="#9F9F9F"/>
</svg>
